<?xml version="1.0" encoding="UTF-8"?>
<!DOCTYPE svg PUBLIC "-//W3C//DTD SVG 1.1//EN" "http://www.w3.org/Graphics/SVG/1.1/DTD/svg11.dtd">
<!-- Creator: CorelDRAW 2019 (64-Bit) -->
<svg xmlns="http://www.w3.org/2000/svg" xml:space="preserve" width="2.5398mm" height="2.5398mm" version="1.1" style="shape-rendering:geometricPrecision; text-rendering:geometricPrecision; image-rendering:optimizeQuality; fill-rule:evenodd; clip-rule:evenodd"
viewBox="0 0 253.98 253.98"
 xmlns:xlink="http://www.w3.org/1999/xlink">
 <defs>
  <style type="text/css">
   <![CDATA[
    .fil0 {fill:#2B4392}
   ]]>
  </style>
 </defs>
 <g id="Слой_x0020_1">
  <metadata id="CorelCorpID_0Corel-Layer"/>
  <g id="_2000824048">
   <path class="fil0" d="M128.32 0.46c36.86,34.69 42.71,97.35 13.55,133.53 9.93,-2.41 21.45,-11.29 27.66,-33.31 27.51,22.61 18.77,71.1 -1.13,95.42l-73.39 1.69c0,0 -27.39,-27.66 -27.95,-58.72 -0.57,-31.05 17.22,-51.09 38.96,-81.58 21.73,-30.49 26.25,-41.22 22.3,-57.03z"/>
   <path class="fil0" d="M128.32 0.46c36.86,34.69 42.71,97.35 13.55,133.53 9.93,-2.41 21.45,-11.29 27.66,-33.31 27.51,22.61 18.77,71.1 -1.13,95.42l-73.39 1.69c0,0 -27.39,-27.66 -27.95,-58.72 -0.57,-31.05 17.22,-51.09 38.96,-81.58 21.73,-30.49 26.25,-41.22 22.3,-57.03z"/>
   <path class="fil0" d="M190.88 157c25.33,5.94 41.69,15.33 41.69,25.9 0,17.97 -47.27,32.54 -105.58,32.54 -58.31,0 -105.58,-14.57 -105.58,-32.54 0,-10.8 17.08,-20.37 43.36,-26.28 0.47,1.65 1,3.28 1.58,4.9 -17.4,4.71 -28.29,11.4 -28.29,18.84 0,14.23 39.82,25.76 88.93,25.76 49.11,0 88.92,-11.53 88.92,-25.76 0,-7.11 -9.95,-13.55 -26.03,-18.21 0.38,-1.71 0.72,-3.42 1,-5.15z"/>
   <path class="fil0" d="M196.01 207.52c4.61,2.73 7.2,5.78 7.2,8.99 0,11.7 -34.13,21.19 -76.22,21.19 -42.1,0 -76.22,-9.49 -76.22,-21.19 0,-3.21 2.58,-6.26 7.2,-8.99 2.62,0.7 5.35,1.36 8.18,1.97 -2.18,1.69 -3.36,3.49 -3.36,5.37 0,9.26 28.74,16.77 64.2,16.77 35.45,0 64.2,-7.51 64.2,-16.77 0,-1.88 -1.18,-3.68 -3.36,-5.37 2.83,-0.61 5.56,-1.27 8.18,-1.97z"/>
   <path class="fil0" d="M183.02 230.76c2.63,1.87 4.08,3.91 4.08,6.05 0,9.23 -26.92,16.71 -60.11,16.71 -33.2,0 -60.11,-7.48 -60.11,-16.71 0,-2.07 1.37,-4.06 3.85,-5.89 2.12,0.64 4.38,1.24 6.77,1.8 -0.74,0.9 -1.14,1.83 -1.14,2.79 0,7.3 22.67,13.22 50.63,13.22 27.96,0 50.62,-5.92 50.62,-13.22 0,-1.02 -0.43,-2 -1.26,-2.95 2.36,-0.56 4.58,-1.16 6.67,-1.8z"/>
  </g>
 </g>
</svg>
