<?xml version="1.0" encoding="UTF-8"?>
<!DOCTYPE svg PUBLIC "-//W3C//DTD SVG 1.1//EN" "http://www.w3.org/Graphics/SVG/1.1/DTD/svg11.dtd">
<!-- Creator: CorelDRAW 2019 (64-Bit) -->
<svg xmlns="http://www.w3.org/2000/svg" xml:space="preserve" width="2.5398mm" height="2.5398mm" version="1.1" style="shape-rendering:geometricPrecision; text-rendering:geometricPrecision; image-rendering:optimizeQuality; fill-rule:evenodd; clip-rule:evenodd"
viewBox="0 0 253.98 253.98"
 xmlns:xlink="http://www.w3.org/1999/xlink">
 <defs>
  <style type="text/css">
   <![CDATA[
    .fil0 {fill:#2B4392}
   ]]>
  </style>
 </defs>
 <g id="Слой_x0020_1">
  <metadata id="CorelCorpID_0Corel-Layer"/>
  <g id="_2102369200">
   <path class="fil0" d="M41.82 132.75l167.31 0c1.4,0 1.82,-0.42 1.82,-1.82l0 -124.22c0,-1.4 -0.42,-1.82 -1.82,-1.82l-167.31 0 0 127.86z"/>
   <path class="fil0" d="M0.6 170.32l252.78 0c-0.72,-2.01 -0.84,-1.31 -4.81,-3.67l-21.67 -12.89c-2.13,-1.18 -3.3,-1.88 -5.44,-3.04 -1.61,-0.88 -10.3,-6.46 -11.12,-6.46l-170.34 0c-1.31,0 -8.66,5.16 -10.19,6.18l-27.08 17.77c-2.36,1.51 -1.44,0.18 -2.13,2.11z"/>
   <path class="fil0" d="M111.53 219.4l31.52 0 0 19.39 -31.52 0 0 -19.39zm12.73 -9.7l-23.03 0 0 16.36 -73.96 0c-2.59,0 -1.82,2.33 -1.82,7.88l75.78 0c0,8.73 -1.35,15.15 1.81,15.15l49.71 0 0 -15.15 75.17 0c2.42,0 1.82,-1.72 1.82,-6.06 0,-1.4 -0.42,-1.82 -1.82,-1.82l-75.17 0 0 -16.36 -19.4 0c-1.39,0 -1.81,-0.42 -1.81,-1.81l0 -15.15 -7.28 0 0 16.96z"/>
   <polygon class="fil0" points="-0.01,184.25 253.99,184.25 253.99,174.56 -0.01,174.56 "/>
  </g>
 </g>
</svg>
