<?xml version="1.0" encoding="UTF-8"?>
<!DOCTYPE svg PUBLIC "-//W3C//DTD SVG 1.1//EN" "http://www.w3.org/Graphics/SVG/1.1/DTD/svg11.dtd">
<!-- Creator: CorelDRAW 2019 (64-Bit) -->
<svg xmlns="http://www.w3.org/2000/svg" xml:space="preserve" width="2.5398mm" height="2.5398mm" version="1.1" style="shape-rendering:geometricPrecision; text-rendering:geometricPrecision; image-rendering:optimizeQuality; fill-rule:evenodd; clip-rule:evenodd"
viewBox="0 0 253.98 253.98"
 xmlns:xlink="http://www.w3.org/1999/xlink">
 <defs>
  <style type="text/css">
   <![CDATA[
    .fil0 {fill:#2B4392}
   ]]>
  </style>
 </defs>
 <g id="Слой_x0020_1">
  <metadata id="CorelCorpID_0Corel-Layer"/>
  <g id="_2052373808">
   <path class="fil0" d="M59.29 191.66l-24.95 0 0 30.27 24.95 0 0 -30.27zm53.45 0l-24.95 0 0 30.27 24.95 0 0 -30.27zm52.85 0l-24.94 0 0 30.27 24.94 0 0 -30.27zm52.86 0l-24.94 0 0 30.27 24.94 0 0 -30.27zm14.25 62.33l-210.83 0 0 -70.05 210.83 0 0 70.05z"/>
   <path class="fil0" d="M185.72 20.55c0,9.01 -0.75,12.58 -7.63,19.25 -3.65,3.55 -9.46,5.8 -16.52,5.8 -1.09,2.26 -3.89,11.71 -10.94,12.3 1.75,7.51 1.12,12.82 -5.59,18.54 -1.8,1.53 -2.46,1.46 -4.43,2.41 2.22,4.2 2.47,8.73 -0.79,12.43 -7.77,8.79 -22.53,-0.09 -17.16,-11.24 0.97,-2.03 1.45,-1.97 2.45,-3.47 -7.56,-5.06 -7.55,-17.21 -4.87,-19.9 1.29,-1.3 0.26,0.34 2.96,-2.97 2.45,-3.01 1.74,-4.72 6.47,-5.82 -3.77,-7.87 3.28,-20.32 10.94,-20.95 0,-7.15 0.29,-13.39 5.57,-19.03 9.47,-10.1 23.05,-10.25 32.36,-2.04 3.1,2.73 7.18,9.07 7.18,14.69z"/>
   <path class="fil0" d="M136.49 166.13l67.11 0c2.2,0 15.16,6.44 17.42,7.52l14.7 6.68c1.85,1.12 1.06,-0.03 1.73,1.83l-220.93 0c0.77,-2.11 5.02,-3.08 8.57,-4.5 33.17,-13.25 17.96,-11.53 55.58,-11.53l0 -52.24 9.5 0.59c2.86,0 5.94,-1.87 5.94,1.19l0 50.46 24.94 0 0 -50.46c0,-2.85 2.59,-1.19 10.1,-1.19 2.98,0 2.66,-0.53 5.34,-0.59l0 52.24z"/>
   <path class="fil0" d="M111.92 40.68c0,4.23 0.24,6.8 -2.6,10.62 -1.55,2.1 -2.98,3.38 -5.33,4.69 -5.07,2.83 -2.72,-1.12 -4.55,5.47 -1.13,4.05 -2.2,3.52 -3.93,6.1 0.72,3.08 3.26,6.02 0,11.83 -0.68,1.22 -1.17,2.32 -2.73,2.74 0.32,3.86 1.82,0.08 1.82,6.83 0,6.95 -13.67,9.36 -13.67,-1.82 0,-1.65 0.54,-1.6 0.91,-3.19 -9.94,-5.26 -7.7,-15.49 -2.28,-19.13 -3.14,-5.93 -2.32,-11.94 3.65,-15.94 -2.76,-5.21 -1.29,-12.59 2.66,-16.92 3.87,-4.23 8.1,-4.48 12.83,-4.48 6.19,0 13.22,6.95 13.22,13.2z"/>
   <path class="fil0" d="M133.52 100.83l-8.91 0 0 0.59 8.91 0 0 -0.59zm-10.09 -0.6l-3.57 0 0 0.6 3.57 0 0 -0.6zm14.25 0l-3.56 0 0 0.6 3.56 0 0 -0.6zm1.19 -1.78c1.96,4.74 1.19,7.92 1.19,14.25 -1.64,0.38 -10.14,1.16 -11.72,1.03 -12.3,-1.03 -10.85,1.65 -10.85,-11.71 0,-1.6 0.61,-0.82 1.37,-2.33 0.03,-0.06 0.11,-0.22 0.13,-0.28 0.13,-0.3 -0.01,-0.25 0.28,-0.96l11.88 -0.59c3.61,0 4.33,0.59 7.72,0.59z"/>
   <path class="fil0" d="M92.54 100.83l-8.31 0 0 0.59 8.31 0 0 -0.59zm-9.5 -0.6l-3.56 0 0 0.6 3.56 0 0 -0.6zm14.25 0l-2.97 0 0 0.6 2.97 0 0 -0.6zm1.19 -1.78c1.36,3.28 1.2,3.81 1.2,7.72 0.01,4.57 1.09,6.84 -3.55,7.14 -10.73,0.71 -9.33,0.2 -19.03,-0.61l0 -12.47c3.28,-0.28 0.72,0.8 1.78,-1.78l11.88 -0.59c3.61,0 4.33,0.59 7.72,0.59z"/>
  </g>
 </g>
</svg>
