<?xml version="1.0" encoding="UTF-8"?>
<!DOCTYPE svg PUBLIC "-//W3C//DTD SVG 1.1//EN" "http://www.w3.org/Graphics/SVG/1.1/DTD/svg11.dtd">
<!-- Creator: CorelDRAW 2019 (64-Bit) -->
<svg xmlns="http://www.w3.org/2000/svg" xml:space="preserve" width="2.5398mm" height="2.5398mm" version="1.1" style="shape-rendering:geometricPrecision; text-rendering:geometricPrecision; image-rendering:optimizeQuality; fill-rule:evenodd; clip-rule:evenodd"
viewBox="0 0 253.98 253.98"
 xmlns:xlink="http://www.w3.org/1999/xlink">
 <defs>
  <style type="text/css">
   <![CDATA[
    .fil0 {fill:#2B4392}
   ]]>
  </style>
 </defs>
 <g id="Слой_x0020_1">
  <metadata id="CorelCorpID_0Corel-Layer"/>
  <g id="_2053825200">
   <path class="fil0" d="M45 113.04l2.25 0 0 0.45 -2.25 0 0 -0.45zm-2.7 -0.45c1.12,0 1.12,0.02 1.8,0.45 -3.09,0 -2.4,-0.9 -4.5,-0.9l-19.81 0 0 56.69 20.26 0c1.04,0 1.35,-0.31 1.35,-1.35l0 -15.3 19.81 0 0 16.65 133.68 0 0 -16.65 20.26 0 0 16.65 20.25 0 0 -57.14 -36.46 0c-2.11,0 0.29,2.25 -9.45,2.25 -3.17,0 -8.69,0.2 -11.53,-0.62 -2.77,-0.81 -0.65,-0.45 -1.95,-1.2l-1.36 -0.44c-1.54,-0.19 -11.16,0.46 -14.42,0.46l-53.56 0 0 -6.75 1.35 0c0,-8.4 -1.35,-0.32 -1.35,-8.54l-3.6 0c0,8.29 -1.8,-0.32 -1.8,8.54l1.35 0 0 6.75 -9.46 0 0 -6.75 1.35 0c0,-7.18 -0.39,-1.17 -1.35,-6.74 -0.32,-1.86 0.26,-1.8 -2.7,-1.8 -2.2,0 -0.86,1.84 -1.7,3.69 -0.5,1.11 -1,-0.92 -1,4.85l1.35 0 0 6.75 -36.46 0c-2.08,0 -1.35,0.84 -4.05,0.9 1.37,-0.95 1.8,-0.36 1.8,-1.8l0 -16.19c0,-2.12 -2.77,-1.35 -8.1,-1.35l0 18.89z"/>
   <path class="fil0" d="M-0.01 140.49c0,8.32 2.26,17.16 6.31,24.28 2.75,4.83 5.25,4.06 11.24,4.06l0 -56.69c-9.18,0 -10.82,0.68 -14.4,10.35 -1.76,4.73 -3.15,12.96 -3.15,18z"/>
   <path class="fil0" d="M237.65 168.83c5.86,0 9.89,-3.37 12.01,-7.34 6.19,-11.59 5.17,-29.37 0.54,-40.74 -3.17,-7.77 -5.82,-7.49 -12.55,-9.06l0 57.14z"/>
   <path class="fil0" d="M179.59 101.34c9.92,0 14.46,0.74 23.4,-1.34l0 -17.55c-8.95,2.08 -23.1,2.06 -31.96,0 0,4.49 0.06,9.02 0,13.5 -0.04,2.79 -2.24,5.39 8.56,5.39z"/>
   <polygon class="fil0" points="197.14,178.28 213.35,178.28 213.35,154.43 197.14,154.43 "/>
   <polygon class="fil0" points="43.2,178.28 59.41,178.28 59.41,154.43 43.2,154.43 "/>
   <path class="fil0" d="M176.89 112.14c2.69,0.06 5.17,0.9 12.15,0.9 3.42,0 5.11,-0.9 8.1,-0.9 0,-12.93 0.55,-9.45 -3.6,-9.45l-12.6 0c-2.26,0 -2.02,-0.4 -4.05,-0.45l0 9.9z"/>
   <path class="fil0" d="M50.4 85.15c0.05,-0.05 0.14,0.07 0.14,0.13l-0.14 -0.13zm-8.1 -1.35l-2.7 0c0.58,2.75 -0.28,-0.44 -0.47,3.55 -0.08,1.55 0.02,3.41 0.02,5 2.4,1.15 13.95,2.01 13.95,-0.9l0 -6.3c-4.13,-0.09 0,-0.27 -1.65,-1.1 -0.79,-0.4 -0.49,-0.23 -1.5,-0.25l0 -8.1 -7.65 0 0 8.1z"/>
   <path class="fil0" d="M171.49 81.55c4.9,1.14 27.04,2.74 29.7,-0.9 -3.78,-1.82 -7.86,-1.16 -11.25,-1.35 -2.04,-0.11 -1.95,-0.55 -4.01,-0.44 -1.65,0.09 -1.54,0.39 -3.63,0.45 -1.47,0.05 -3.05,-0.09 -4.52,-0.01 -1.45,0.07 -2.08,0.23 -3.57,0.48 -1.92,0.32 -2.29,0.12 -2.72,1.77z"/>
  </g>
 </g>
</svg>
