<?xml version="1.0" encoding="UTF-8"?>
<!DOCTYPE svg PUBLIC "-//W3C//DTD SVG 1.1//EN" "http://www.w3.org/Graphics/SVG/1.1/DTD/svg11.dtd">
<!-- Creator: CorelDRAW 2019 (64-Bit) -->
<svg xmlns="http://www.w3.org/2000/svg" xml:space="preserve" width="2.5398mm" height="2.5398mm" version="1.1" style="shape-rendering:geometricPrecision; text-rendering:geometricPrecision; image-rendering:optimizeQuality; fill-rule:evenodd; clip-rule:evenodd"
viewBox="0 0 253.98 253.98"
 xmlns:xlink="http://www.w3.org/1999/xlink">
 <defs>
  <style type="text/css">
   <![CDATA[
    .fil0 {fill:#2B4392}
   ]]>
  </style>
 </defs>
 <g id="Слой_x0020_1">
  <metadata id="CorelCorpID_0Corel-Layer"/>
  <g id="_2049091472">
   <path class="fil0" d="M91.26 90.37c0,0 4.12,13.74 11.15,30.43 4.25,10.07 9.55,21.22 15.65,31.08 9.92,16.02 13.37,30.93 12.53,43.72 -3.84,58.36 -76.07,58.22 -78.71,-9.95 -1.39,-35.56 26.27,-62.49 39.38,-95.28z"/>
   <path class="fil0" d="M96.04 79.36c0,0 3.19,11.77 8.49,25.52 10.42,27.09 50.13,75.56 34.94,106.63 -4.58,9.35 -9.35,16.21 -23.48,24.1 -14.13,7.9 -35.95,2.49 -35.95,2.49 46.59,34.17 117.73,10.95 121.9,-47.92 2.63,-37.11 -19.48,-60.15 -41.9,-86.51 -27.22,-32 -32.42,-50.28 -35.95,-61.92 -3.53,-11.63 -9.04,-41.76 -9.04,-41.76 0,0 -3.01,28.05 1.14,54.02 4.16,25.97 13.72,54.65 33.04,82.49 19.33,27.84 21.61,43.63 21.61,56.93 0,21.99 -23.45,45.17 -44.87,49.07 -11.05,2.01 -22.03,1.01 -22.03,1.01 30.97,-4.04 54.51,-30.22 48.2,-61.3 -5.9,-29.06 -35.46,-66.72 -42.59,-97.86 -4.58,-19.95 -5.2,-29.51 -5.2,-29.51l-8.31 24.52z"/>
  </g>
 </g>
</svg>
