<?xml version="1.0" encoding="UTF-8"?>
<!DOCTYPE svg PUBLIC "-//W3C//DTD SVG 1.1//EN" "http://www.w3.org/Graphics/SVG/1.1/DTD/svg11.dtd">
<!-- Creator: CorelDRAW 2019 (64-Bit) -->
<svg xmlns="http://www.w3.org/2000/svg" xml:space="preserve" width="2.5398mm" height="2.5398mm" version="1.1" style="shape-rendering:geometricPrecision; text-rendering:geometricPrecision; image-rendering:optimizeQuality; fill-rule:evenodd; clip-rule:evenodd"
viewBox="0 0 253.98 253.98"
 xmlns:xlink="http://www.w3.org/1999/xlink">
 <defs>
  <style type="text/css">
   <![CDATA[
    .fil0 {fill:#2B4392}
    .fil1 {fill:#2B4392;fill-rule:nonzero}
   ]]>
  </style>
 </defs>
 <g id="Слой_x0020_1">
  <metadata id="CorelCorpID_0Corel-Layer"/>
  <g id="_2055208160">
   <path class="fil0" d="M200.62 171.03l27.84 0 0 33.8 -27.84 0 0 -33.8zm-59.66 0l27.84 0 0 33.8 -27.84 0 0 -33.8zm-58.99 0l27.84 0 0 33.8 -27.84 0 0 -33.8zm-59 0l27.84 0 0 33.8 -27.84 0 0 -33.8zm-15.91 69.57l235.32 0 0 -78.18 -235.32 0 0 78.18z"/>
   <g>
    <path class="fil1" d="M147.75 65.79c-0.61,-0.17 -3.74,0.24 -3.6,-0.39 0.06,-0.31 1.27,-0.22 1.85,-0.19 0.36,0.01 2.05,0.3 1.96,-0.1 -0.1,-0.42 -2.42,0.21 -2.25,-0.49 0.07,-0.27 1.08,-0.21 1.37,-0.2 0.9,0.04 1.01,0.17 1.56,-0.09 0.4,-0.19 0.57,-0.33 0.88,-0.49 0.08,-0.04 0.48,-0.18 0.49,-0.2 0.25,-0.38 0.27,-2.92 -0.1,-3.22 -0.25,-0.21 -0.58,-0.05 -1.36,-0.1 -0.89,-0.06 -2.73,-0.2 -3.23,0 -0.13,0.05 -0.11,0.11 -0.2,0.19 -0.62,0.63 -1.38,1.29 -2.34,2.25 -0.48,0.48 -2.25,1.82 -2.25,2.35 0,0.31 0.72,0.9 1.07,1.27 0.92,0.96 1.61,1.61 2.45,2.44 0.54,0.54 0.76,1.03 1.46,0.98 0.16,-0.01 0.03,-0.31 0.2,-0.39 0.48,-0.23 1.34,0.24 2.15,0 0.13,-0.04 0.51,-0.5 0.69,-0.59 0.18,-0.09 0.49,-0.13 0.68,-0.19 0.65,-0.23 0.75,-0.2 0.78,-0.88 0.03,-0.68 -0.07,-0.77 -0.49,-0.78 -0.36,-0.02 -0.85,0.02 -1.17,-0.2 -0.32,-0.22 0.12,-0.41 -0.1,-0.68 0.11,0.13 -0.61,-0.32 -0.5,-0.3zm-18.07 9.78c-0.02,0 0.27,-0.25 0.29,-0.29 0.14,-0.28 -0.84,-0.92 -0.68,-1.08 0.19,-0.19 3.83,-0.27 4.1,0 0.28,0.28 0.04,1.34 0.1,2.15 0.07,0.93 0.36,1.51 0.29,2.74 -0.04,0.77 -0.09,1.07 -0.39,1.37 -0.06,0.06 -0.12,0.24 -0.19,0.29 -0.19,0.13 -0.65,0.07 -0.69,0.29 -0.07,0.43 0.41,0.32 0.59,0.49 0.09,0.09 0.02,0.29 0.1,0.39 0.08,0.1 0.25,0.05 0.29,0.2 0.16,0.49 -0.35,2.17 0.29,2.05 0.32,-0.06 0.34,-0.37 0.4,-0.88 0.01,-0.16 -0.2,-0.83 0,-1.17 0.04,-0.08 0.32,-0.03 0.39,-0.1 0.05,-0.05 0.02,-0.27 0.09,-0.29 0.35,-0.13 1.35,-0.07 1.57,0.19 0.31,0.37 -0.19,3.42 -0.1,4.21 0.04,0.33 0.32,0.61 0.39,0.97 0.34,1.78 -0.13,4.64 0,6.46 0.19,2.73 0,6.33 0,9.38 0,1.2 0.17,2.5 0,3.13 -0.09,0.32 -0.48,0.55 -0.78,0.88 -0.63,0.67 -1.45,1.56 -2.35,2.05 -0.35,0.19 -0.89,0.27 -1.37,0.49 -0.41,0.19 -0.77,0.54 -1.17,0.68 -0.44,0.16 -1.02,0.16 -1.47,0.3 -0.99,0.3 -2.09,0.74 -3.51,0.68 -1.02,-0.04 -2.2,-0.3 -3.33,-0.68 -1.99,-0.69 -3.12,-0.95 -4.3,-2.15 -0.97,-1 -1.98,-2.27 -2.83,-3.42 -0.65,-0.88 -1.13,-1.95 -1.76,-2.94 -0.5,-0.78 -1.08,-1.6 -1.86,-2.83 -0.23,-0.36 -0.48,-0.84 -0.88,-1.47 -0.37,-0.58 -0.9,-1.14 -0.88,-1.37 0.01,-0.1 1.01,-1.07 1.27,-1.37 0.16,-0.18 0.23,-0.31 0.29,-0.48 0.11,-0.33 -0.14,-0.9 0.2,-1.37 0.01,-0.02 0.17,-0.28 0.19,-0.3 0.27,-0.21 0.74,0 0.98,-0.29 0.08,-0.09 0.21,-0.25 0.2,-0.49 -0.01,-0.11 -0.31,-0.14 -0.2,-0.49 0.06,-0.18 0.92,-0.79 0.98,-1.07 0.03,-0.16 -0.17,-0.5 -0.1,-0.69 0.22,-0.57 1,-1.15 1.47,-1.66 0.73,-0.8 1.49,-1.57 2.25,-2.35 0.63,-0.65 1.21,-1.32 1.85,-2.05 1.37,-1.54 3.1,-3.24 4.79,-5.08 0.46,-0.49 1.25,-1.51 1.47,-1.57 0.28,-0.07 0.16,0.22 0.39,0.3 0.1,0.03 0.61,-0.01 0.78,0 0.46,0.01 0.73,-0.03 0.59,-0.59 -0.12,-0.46 -0.24,-0.3 0.1,-0.68 0.18,-0.21 0.43,-0.81 0.78,-0.88 0.08,-0.02 0.68,0.16 0.98,0.19 0.07,0.01 0.11,0.27 0.39,0.2zm102.84 9.53l0 -0.06c-0.03,-1.37 -1.14,-2.05 -2.15,-2.43 -0.24,-0.09 -0.63,-0.11 -1.08,-0.2 -0.09,-0.02 -0.14,-0.18 -0.49,-0.19 -0.23,-0.01 -0.51,-0.03 -0.52,0.04 0.01,0.02 0.02,0.04 0.03,0.05 -0.02,-0.02 -0.03,-0.04 -0.03,-0.05 -0.07,-0.25 0.25,-1.03 0.03,-1.32 -0.15,-0.2 -2.08,-0.25 -2.54,-0.39 -0.6,-0.18 -0.88,-0.54 -1.37,-0.68 -0.14,-0.04 -2.76,-0.45 -3.22,-0.2 -0.41,0.22 -0.94,2.73 -0.59,3.33 0.18,0.3 0.43,0.3 0.78,0.39 0.27,0.07 0.75,0 0.88,0.29 0.26,0.57 -0.73,1.07 -1.27,1.57 -0.07,0.06 -0.23,0.12 -0.29,0.19 -0.23,0.27 -0.61,0.77 -0.78,0.88 -0.27,0.16 -0.64,0.44 -0.98,0.69 -0.81,0.58 -3.64,2.56 -3.81,2.64 -0.09,0.03 -0.31,0.18 -0.49,0.19 -0.27,0.01 -0.68,-0.29 -0.69,0.2 0,0.06 0.16,0.18 0.1,0.29 -0.05,0.09 -2.03,1.45 -2.25,1.56 -0.21,0.11 -0.48,0.06 -0.68,0.2 -0.24,0.16 -0.2,0.4 -0.39,0.59 -0.16,0.15 -0.45,0.18 -0.59,0.29 -0.98,0.73 -2.11,1.41 -3.23,2.15 -1.39,0.93 -2.76,1.96 -4.2,2.93 -5.73,3.89 -11.11,7.57 -17.11,11.64 -0.38,0.25 -1.79,1.2 -2.15,1.46 -1.61,1.15 -2.66,1.73 -4.3,2.84 -0.42,0.28 -0.67,0.44 -1.07,0.68 -0.26,0.15 -0.42,0.53 -0.78,0.39 -0.82,-0.31 0.48,-1 0.87,-1.27 0.64,-0.43 0.95,-0.69 1.28,-0.98 0.53,-0.46 1.05,-0.81 1.46,-1.46 0.03,-0.05 0.94,-1.46 0.98,-1.57 0.12,-0.32 0.47,-1.1 0.59,-1.37 0.02,-0.05 0.17,-0.89 0.29,-1.36 0.3,-1.23 0.69,-2.67 0.78,-4.11 0.22,-3.51 -0.19,-7.18 -0.19,-10.17 -0.01,-3.07 -0.54,-6.24 -0.88,-9.28 -0.23,-2.02 -0.55,-3.95 -0.88,-5.87 -1.38,-7.91 -3,-15.27 -4.99,-23.07 -0.82,-3.22 -1.83,-6.31 -2.83,-9.48 -0.65,-2.03 -1.48,-4.47 -2.15,-6.65 -0.53,-1.7 -1.31,-3.32 -1.96,-4.98 -1.27,-3.24 -2.5,-6.16 -4.11,-9.1 -0.04,-0.07 -0.49,-0.98 -0.58,-1.17 -0.11,-0.2 -0.75,-1.29 -0.98,-1.66 -0.5,-0.79 -1.04,-1.61 -1.66,-2.35 -0.03,-0.03 -1.34,-1.73 -1.47,-1.85 -0.1,-0.1 -0.93,-1.02 -1.37,-1.37 -0.18,-0.15 -1.91,-1.92 -6.16,-2.54 -0.08,-0.02 -0.18,-0.02 -0.3,-0.03l-0.06 0c-0.36,0.01 -0.77,0.06 -1,0.12 -0.18,0.05 -0.19,0.05 -0.3,0.1 -0.77,0.33 -1.74,1.33 -2.34,2.74 -0.07,0.14 -0.41,1.23 -0.49,1.46 -0.45,1.27 -0.83,4.04 -0.88,4.5 -0.12,1.03 -0.29,2.41 -0.39,3.72 -0.36,4.35 0.1,10.17 0.58,14.85 0.59,5.74 1.42,11.13 2.55,16.62 0.15,0.73 0.52,2.2 0.39,2.35 -0.24,0.28 -0.98,-0.09 -1.18,-0.1 -1.05,-0.05 -1.59,-0.05 -2.64,-0.1 -0.59,-0.03 -1.99,0.19 -1.17,-0.48 0.07,-0.06 0.64,-0.34 0.78,-0.4 0.14,-0.04 0.14,0.09 0.39,0 0.3,-0.09 0.56,-0.37 0.79,-0.39 0.25,-0.02 0.22,0.59 0.68,0.1 0.32,-0.34 -0.05,-0.2 -0.1,-0.49 -0.1,-0.61 0.45,-0.55 0.1,-0.98 -0.37,-0.45 -1.09,-1.18 -1.66,-1.66 -0.18,-0.15 -0.19,-0.19 -0.39,-0.29 -0.2,-0.09 -0.26,-0.03 -0.39,-0.2 -0.39,-0.48 -0.06,-0.92 -0.49,-1.36 -0.04,-0.04 -0.44,0.11 -0.59,0 -0.27,-0.22 0.14,-0.46 -0.1,-0.49 -0.17,-0.02 -0.38,0.15 -0.58,0.29 -0.58,0.39 -0.65,0.45 -0.49,0.98 0.05,0.16 0.23,-0.09 0.19,0.19 -0.08,0.7 -0.25,0.55 -0.88,0.88 -0.09,0.05 -0.16,0.35 -0.29,0.39 -0.19,0.07 -0.42,-0.1 -0.59,0 -0.38,0.25 -0.7,0.86 -1.17,1.37 -1.18,1.28 -2.41,2.59 -3.71,3.91 -1.17,1.18 -2.5,2.62 -3.72,3.91 -0.44,0.48 -0.83,1.08 -1.17,1.27 -0.23,0.14 -0.92,0.21 -1.08,0.3 -0.36,0.21 -1.03,1.22 -1.36,1.66 -0.41,0.53 -0.73,0.89 -1.37,1.56 -0.35,0.37 -0.93,0.97 -0.98,0.98 0.01,0 -0.76,-0.49 -0.98,-0.49 -0.21,0.01 -0.39,0.24 -0.68,0.39 -0.28,0.15 -0.42,0.16 -0.69,0.2 -0.05,0.01 -0.26,-0.3 -0.29,-0.3 -0.05,0 -0.76,0.62 -0.78,0.69 -0.18,0.53 0.21,0.5 0.29,1.07 0.02,0.17 0.01,1.33 -0.19,1.67 -0.1,0.15 -0.48,0.29 -0.59,0.58 -0.08,0.19 0.01,0.34 -0.1,0.49 -0.4,0.6 -1.07,1.02 -1.56,1.57 -0.5,0.54 -5.47,5.9 -7.04,7.62 -0.52,0.57 -1.13,1.17 -1.86,1.96 -0.44,0.48 -1.13,1.4 -1.47,1.56 -0.24,0.12 -0.95,0.13 -1.07,0.2 -0.37,0.18 -0.71,0.54 -0.88,0.88 -0.2,0.39 -0.74,1.51 -1.27,1.17 -0.27,-0.18 -0.21,-0.26 0.1,-0.69 0.35,-0.49 1.29,-1.25 1.66,-1.66 0.57,-0.63 0.95,-1.04 1.56,-1.76 0.35,-0.4 0.63,-0.53 0.3,-1.17 -0.06,-0.1 -0.22,-0.23 -0.3,-0.39 -0.33,-0.69 -0.12,-1.13 -0.98,-1.27 -0.07,-0.02 -1.16,-0.51 -1.36,-0.49 -0.36,0.03 -0.92,0.69 -1.27,1.07 -0.74,0.81 -1.37,1.47 -2.16,2.35 -0.38,0.43 -0.71,1.08 -1.07,1.17 -0.36,0.1 -0.43,-0.04 -0.68,-0.19 -0.08,-0.04 -0.3,-0.41 -0.59,-0.39 -0.43,0.02 -1.56,1.31 -1.96,1.85 -0.15,0.21 -0.15,0.48 -0.29,0.69 -0.34,0.52 -1.07,0.92 -1.17,1.66 -0.03,0.21 0.01,0.67 0.09,0.98 0.12,0.45 0.36,0.59 0.69,0.98 0.27,0.31 0.46,0.61 0.78,0.88 1.24,1.02 2.5,1.84 3.81,2.83 0.6,0.45 1.47,1.24 2.06,1.27 0.44,0.03 0.55,-0.13 0.88,-0.39 0.27,-0.21 0.46,-0.7 0.88,-0.59 0.13,0.04 0.57,1.09 0.78,1.37 0.1,0.13 0.29,0.17 0.39,0.3 0.93,1.24 1.35,2.4 2.15,3.51 0.4,0.56 0.73,1.06 1.08,1.67 0.32,0.57 0.64,1.17 1.07,1.76 0.76,1.03 1.63,2.1 2.54,3.12 0.69,0.78 1.11,1.22 2.15,1.67 0.64,0.27 1.45,0.77 2.15,0.97 0.52,0.15 1.16,0.15 1.76,0.3 0.7,0.16 1.12,0.39 1.86,0.39 0.46,0 0.96,-0.11 1.47,-0.2 1.06,-0.17 1.76,-0.37 2.73,-0.68 0.48,-0.15 1.04,-0.22 1.47,-0.39 0.39,-0.16 0.77,-0.5 1.17,-0.69 0.46,-0.21 0.94,-0.3 1.27,-0.49 0.4,-0.22 0.55,-0.48 0.69,-0.58 0.52,-0.38 0.73,-0.34 1.46,-1.08 0.06,-0.05 0.39,-0.76 0.59,-0.49 0.22,0.31 0,2.05 0,2.84 0,1.11 0.09,2.04 0,2.74 -0.08,0.59 -0.32,1.22 -0.49,1.85 -0.43,1.66 -0.94,3.58 -1.37,5.38 -1.7,7.16 -3.75,14.51 -5.47,21.51 0.03,0 0.07,0 0.1,0 1.97,-7.11 3.87,-15.06 5.76,-22.29 0.15,-0.54 0.28,-1.09 0.42,-1.67 0.2,-0.85 0.76,-3.71 1.05,-3.42 0.09,0.1 0,1.17 0,1.76 0,1.95 0.16,4.04 0,5.48 -0.09,0.8 -0.38,1.65 -0.59,2.54 -1.4,6.09 -3.44,11.86 -4.98,17.6 0.13,0 0.26,0 0.39,0 1.44,-5.29 3.3,-10.64 4.69,-16.04 0.1,-0.36 0.34,-1.81 0.39,-0.78 0.06,1.07 0.02,2.4 0.01,3.58 -0.01,2.41 0.02,5.76 -0.01,7.86 -0.01,1.29 -0.01,2.25 0.01,3.13 0.02,0.66 -0.04,1.97 -0.01,2.25 1.31,0 2.61,0 3.91,0 -0.17,-13.08 -0.09,-26.13 -0.09,-39.79 0,-1.29 -0.25,-3.48 0.49,-2.25 0.24,0.41 0.51,1.15 0.78,1.56 0.64,0.97 1.35,1.7 2.15,2.55 0.14,0.15 0.65,0.65 0.78,0.78 0.27,0.27 0.51,0.54 0.78,0.78 2.39,2.16 5.33,4.13 8.31,5.77 2.49,1.36 5.45,2.84 8.6,4.01 2.23,0.82 4.8,1.41 7.24,2.15 0.57,0.17 1.14,0.25 1.85,0.49 0.21,0.07 1.36,0.25 1.86,0.29 1.39,0.1 3.5,0.16 4.6,-0.2 1.68,-0.55 2.86,-1.83 4.3,-2.93 1.37,-1.05 2.97,-1.92 4.3,-2.83 2.91,-2.01 5.76,-4 8.5,-5.77 1.47,-0.95 15.23,-10.45 16.43,-11.34 0.16,-0.13 0.39,-0.34 0.49,-0.39 0.31,-0.16 0.73,-0.05 0.97,-0.2 0.16,-0.1 0.08,-0.33 0.2,-0.49 0.4,-0.55 1.95,-0.85 2.93,-1.07 2.34,-0.55 4.97,-0.9 7.14,-1.66 2.9,-1.02 5.79,-1.42 8.01,-3.13 0.54,-0.42 1.55,-1.63 1.57,-2.69zm-84.96 -14.71c-0.26,-0.12 -1.84,-0.01 -1.85,0 -0.11,0.11 1.35,1.54 1.56,1.76 0.12,0.11 0.27,0.26 0.4,0.39 0.12,0.13 0.7,0.78 0.68,0.78 0.11,0.01 1.43,-0.9 1.47,-0.98 0.04,-0.1 0.07,-0.79 0,-0.88 -0.13,-0.15 -0.7,-0.09 -0.79,-0.1 -0.3,-0.03 -0.64,0.1 -0.97,-0.09 -0.05,-0.03 -0.17,-0.45 -0.2,-0.49 -0.06,-0.08 -0.36,-0.41 -0.3,-0.39zm0.99 3.22c-0.22,0.6 0.17,-0.05 0.29,0.39 0.08,0.31 -0.18,0.4 -0.1,0.59 0.24,0.55 1.05,0.72 0.49,1.08 -0.45,0.29 -0.51,-0.4 -0.98,-0.69 -0.28,-0.17 -0.21,0.31 -0.58,0.1 -0.25,-0.14 0.06,-0.48 -0.2,-0.49 -0.28,-0.01 -0.78,0.92 -0.68,0.1 0.08,-0.76 -1.95,-0.49 -3.13,-0.49 -0.67,0 -2.93,-0.2 -3.23,0 -0.21,0.15 0.21,0.25 0.2,0.39 0,0 -0.21,0.18 -0.2,0.2 0.09,0.21 0.64,0.34 0.78,0.78 0.25,0.74 -0.29,1.39 0,1.95 0.05,0.09 0.41,0.04 0.49,0.1 0.25,0.19 -0.11,0.32 0.3,0.39 0.59,0.1 0.91,-0.55 1.17,-0.29 0.05,0.05 0.05,0.64 0,0.88 -0.08,0.41 -0.15,0.42 -0.39,0.49 -0.24,0.06 -0.11,-0.14 -0.3,-0.3 -0.37,-0.32 -0.52,-0.2 -0.88,0 -0.66,0.39 -0.48,1.11 -0.48,2.15 0,0.28 -0.13,1.9 0,2.06 0.43,0.56 0.42,-0.64 1.17,-0.39 0.09,0.03 0.86,0.77 0.19,1.27 -0.53,0.4 -0.64,-0.37 -1.07,-0.1 -0.28,0.17 -0.29,1.14 -0.29,1.17 -0.04,0.54 0.11,0.92 0.09,1.27 -0.1,2.78 -0.77,5.06 -0.97,7.92 -0.07,0.89 -0.13,2.01 0,2.93 0.13,0.97 0.62,1.9 1.07,2.74 1.5,2.82 3.94,4.86 6.26,6.65 0.6,0.47 1.23,0.94 1.85,1.37 5.28,3.56 11.06,6.28 17.6,8.11 1.73,0.49 3.47,1.21 5.08,1.37 0.52,0.05 1.95,0.17 2.15,0.2 0.52,0.05 2.34,0.04 2.45,-0.1 0.08,-0.11 -0.57,-0.68 -0.59,-0.69 -0.5,-0.54 -0.8,-1.06 -1.17,-1.56 -0.43,-0.59 -0.69,-0.75 -1.17,-1.08 -1.41,-0.94 -2.33,-2.17 -3.33,-3.52 -2.05,-2.77 -4.23,-6.37 -5.77,-9.67 -2.44,-5.24 -4.53,-10.47 -6.64,-16.52 -1,-2.85 -2,-5.82 -2.84,-8.8 -0.12,-0.45 -0.69,-2.92 -0.88,-3.03 -0.36,-0.22 -1.12,-0.01 -1.37,0.1 -0.02,0.01 0.02,0.17 0,0.19 -0.61,1.03 -2.46,-0.11 -3.61,0.2 -0.07,0.01 -0.78,0.61 -0.78,0.58zm81.23 14.57c1.21,-0.76 3.34,-2.85 1.95,-4.4 -0.14,-0.16 -0.97,-0.65 -1.07,-0.68 -0.47,-0.17 -2.13,-0.26 -2.25,-0.2 -0.33,0.17 -0.36,0.84 -0.78,0.98 -0.39,0.13 -1.02,-0.12 -1.57,-0.2 -0.53,-0.07 -1.5,-0.29 -1.66,-0.19 -0.41,0.24 -0.16,1.81 -0.39,2.24 -0.11,0.22 -1.55,1.09 -1.76,1.18 -0.25,0.11 -0.57,0.09 -0.78,0.19 -0.36,0.18 -0.86,0.64 -1.37,0.98 -0.99,0.65 -1.91,1.31 -2.83,1.96 -0.58,0.4 -1.32,0.73 -1.47,0.97 -0.19,0.31 0.16,0.48 0.1,0.69 -0.03,0.09 -0.85,0.27 -0.49,0.49 0.14,0.08 1.27,-0.23 2.15,-0.39 2.64,-0.51 4.34,-0.85 6.35,-1.57 2.2,-0.78 4.23,-1.02 5.87,-2.05zm-83.78 -30.6c0.09,-0.59 -0.72,-0.26 -0.78,-1.07 -0.03,-0.42 0.4,-0.5 0.29,-0.79 -0.12,-0.32 -0.39,-0.49 -0.68,-0.39 -0.37,0.13 -0.33,0.38 -0.49,0.69 -0.08,0.16 -0.3,0.28 -0.39,0.49 -0.09,0.21 0.07,0.47 0,0.58 -0.26,0.42 -0.84,0.82 -1.27,1.27 -2.74,2.89 -5.4,5.88 -8.11,8.7 -0.25,0.26 -0.74,0.51 -0.79,0.59 -0.06,0.12 0.08,0.8 0.1,0.68 -0.08,0.36 -1.27,1.31 -1.66,1.67 -0.79,0.72 -0.44,0.75 0.88,0.78 3.27,0.07 5.73,0 8.8,0 0.5,0 1.5,0.21 0.98,-0.39 -0.51,-0.59 -1.43,-1.42 -1.76,-1.76 -0.39,-0.39 -1.78,-1.96 -2.06,-2.06 -0.25,-0.09 -0.39,0.3 -0.49,0 -0.05,-0.16 0.06,-0.18 0.2,-0.48 0.2,-0.44 0.56,-1.01 0.88,-1.18 0.18,-0.09 0.35,0.01 0.49,-0.09 0.43,-0.33 1.25,-1.35 1.86,-1.96 0.4,-0.41 1.87,-1.55 1.85,-1.96 -0.02,-0.47 -0.8,-0.57 -0.78,-1.07 0.01,-0.35 0.47,-0.65 0.78,-0.88 0.35,-0.26 2.11,-1.08 2.15,-1.37z"/>
    <path class="fil1" d="M142.29 82.61c-0.75,-0.25 -0.74,0.95 -1.17,0.39 -0.13,-0.16 0,-1.78 0,-2.06 0,-1.04 -0.18,-1.76 0.48,-2.15 0.36,-0.2 0.51,-0.32 0.88,0 0.19,0.16 0.06,0.36 0.3,0.3 0.24,-0.07 0.31,-0.08 0.39,-0.49 0.05,-0.24 0.05,-0.83 0,-0.88 -0.26,-0.26 -0.58,0.39 -1.17,0.29 -0.42,-0.07 -0.05,-0.2 -0.3,-0.39 -0.08,-0.06 -0.44,-0.01 -0.49,-0.1 -0.29,-0.56 0.25,-1.21 0,-1.95 -0.14,-0.44 -0.69,-0.57 -0.78,-0.78 -0.01,-0.02 0.2,-0.2 0.2,-0.2 0.01,-0.14 -0.41,-0.24 -0.2,-0.39 0.3,-0.2 2.56,0 3.23,0 1.18,0 3.21,-0.27 3.13,0.49 -0.1,0.82 0.4,-0.11 0.68,-0.1 0.26,0.01 -0.05,0.35 0.2,0.49 0.37,0.21 0.3,-0.27 0.58,-0.1 0.47,0.29 0.53,0.98 0.98,0.69 0.56,-0.36 -0.25,-0.53 -0.49,-1.08 -0.08,-0.19 0.18,-0.28 0.1,-0.59 -0.12,-0.44 -0.51,0.21 -0.29,-0.39 0,0.03 0.71,-0.57 0.78,-0.58 1.15,-0.31 3,0.83 3.61,-0.2 0.02,-0.02 -0.02,-0.18 0,-0.19 0.25,-0.11 1.01,-0.32 1.37,-0.1 0.19,0.11 0.76,2.58 0.88,3.03 0.84,2.98 1.84,5.95 2.84,8.8 2.11,6.05 4.2,11.28 6.64,16.52 1.54,3.3 3.72,6.9 5.77,9.67 1,1.35 1.92,2.58 3.33,3.52 0.48,0.33 0.74,0.49 1.17,1.08 0.37,0.5 0.67,1.02 1.17,1.56 0.02,0.01 0.67,0.58 0.59,0.69 -0.11,0.14 -1.93,0.15 -2.45,0.1 -0.2,-0.03 -1.63,-0.15 -2.15,-0.2 -1.61,-0.16 -3.35,-0.88 -5.08,-1.37 -6.54,-1.83 -12.33,-4.55 -17.6,-8.11 -0.62,-0.43 -1.25,-0.9 -1.85,-1.37 -2.32,-1.79 -4.76,-3.83 -6.26,-6.65 -0.45,-0.84 -0.94,-1.77 -1.07,-2.74 -0.13,-0.92 -0.07,-2.04 0,-2.93 0.2,-2.86 0.87,-5.14 0.97,-7.92 0.02,-0.35 -0.13,-0.73 -0.09,-1.27 0,-0.03 0.01,-1 0.29,-1.17 0.43,-0.27 0.53,0.51 1.07,0.1 0.67,-0.51 -0.1,-1.24 -0.19,-1.27z"/>
    <path class="fil1" d="M136.42 136.08c-0.01,1.29 -0.01,2.25 0.01,3.13 0.02,0.66 -0.04,1.97 -0.01,2.25 -1.69,0 -3.39,0 -5.08,0 1.44,-5.29 3.3,-10.64 4.69,-16.04 0.1,-0.36 0.34,-1.81 0.39,-0.78 0.06,1.07 0.02,2.4 0.01,3.58 -0.01,2.41 0.02,5.76 -0.01,7.86z"/>
    <path class="fil1" d="M231.73 83.78c1.39,1.55 -0.74,3.64 -1.95,4.4 -1.64,1.03 -3.67,1.27 -5.87,2.05 -2.01,0.72 -3.71,1.06 -6.35,1.57 -0.88,0.16 -2.01,0.47 -2.15,0.39 -0.36,-0.22 0.46,-0.4 0.49,-0.49 0.06,-0.21 -0.29,-0.38 -0.1,-0.69 0.15,-0.24 0.89,-0.57 1.47,-0.97 0.92,-0.65 1.85,-1.31 2.83,-1.96 0.51,-0.34 1.01,-0.8 1.37,-0.98 0.21,-0.1 0.53,-0.08 0.78,-0.19 0.21,-0.09 1.65,-0.96 1.76,-1.18 0.23,-0.43 -0.02,-2 0.39,-2.24 0.16,-0.1 1.13,0.12 1.66,0.19 0.55,0.08 1.18,0.33 1.57,0.2 0.42,-0.14 0.45,-0.81 0.78,-0.98 0.12,-0.06 1.78,0.03 2.25,0.2 0.1,0.03 0.93,0.52 1.07,0.68z"/>
    <path class="fil1" d="M228.28 82.26c0.01,0.02 0.02,0.04 0.03,0.05 -0.02,-0.02 -0.03,-0.04 -0.03,-0.05z"/>
    <path class="fil1" d="M149.91 60.42c0.37,0.3 0.34,2.84 0.1,3.22 -0.01,0.02 -0.41,0.16 -0.49,0.2 -0.31,0.16 -0.48,0.3 -0.88,0.49 -0.55,0.26 -0.66,0.13 -1.56,0.09 -0.29,-0.01 -1.3,-0.07 -1.37,0.2 -0.17,0.7 2.15,0.07 2.25,0.49 0.09,0.4 -1.6,0.11 -1.96,0.1 -0.58,-0.03 -1.79,-0.12 -1.85,0.19 -0.14,0.63 2.99,0.22 3.6,0.39 -0.11,-0.02 0.61,0.43 0.5,0.3 0.22,0.27 -0.22,0.46 0.1,0.68 0.32,0.22 0.81,0.18 1.17,0.2 0.42,0.01 0.52,0.1 0.49,0.78 -0.03,0.68 -0.13,0.65 -0.78,0.88 -0.19,0.06 -0.5,0.1 -0.68,0.19 -0.18,0.09 -0.56,0.55 -0.69,0.59 -0.81,0.24 -1.67,-0.23 -2.15,0 -0.17,0.08 -0.04,0.38 -0.2,0.39 -0.7,0.05 -0.92,-0.44 -1.46,-0.98 -0.84,-0.83 -1.53,-1.48 -2.45,-2.44 -0.35,-0.37 -1.07,-0.96 -1.07,-1.27 0,-0.53 1.77,-1.87 2.25,-2.35 0.96,-0.96 1.72,-1.62 2.34,-2.25 0.09,-0.08 0.07,-0.14 0.2,-0.19 0.5,-0.2 2.34,-0.06 3.23,0 0.78,0.05 1.11,-0.11 1.36,0.1z"/>
    <path class="fil1" d="M149.82 71.46c0.07,0.09 0.04,0.78 0,0.88 -0.04,0.09 -1.36,0.99 -1.47,0.98 0.02,0 -0.56,-0.65 -0.68,-0.78 -0.13,-0.13 -0.28,-0.28 -0.4,-0.39 -0.21,-0.22 -1.67,-1.65 -1.56,-1.76 0.01,-0.01 1.59,-0.12 1.85,-0.01 -0.06,-0.01 0.24,0.32 0.3,0.4 0.03,0.04 0.15,0.46 0.2,0.49 0.33,0.19 0.67,0.06 0.97,0.09 0.09,0.01 0.66,-0.05 0.79,0.1z"/>
    <path class="fil1" d="M145.22 56.51c0.06,0.81 0.87,0.48 0.78,1.07 -0.04,0.29 -1.8,1.11 -2.15,1.37 -0.31,0.23 -0.77,0.53 -0.78,0.88 -0.02,0.5 0.76,0.6 0.78,1.07 0.02,0.41 -1.45,1.55 -1.85,1.96 -0.61,0.61 -1.43,1.63 -1.86,1.95 -0.14,0.11 -0.31,0.01 -0.49,0.1 -0.32,0.17 -0.68,0.74 -0.88,1.18 -0.14,0.3 -0.25,0.32 -0.2,0.48 0.1,0.3 0.24,-0.09 0.49,0 0.28,0.1 1.67,1.67 2.06,2.06 0.33,0.34 1.25,1.17 1.76,1.76 0.52,0.6 -0.48,0.39 -0.98,0.39 -3.07,0 -5.53,0.07 -8.8,0 -1.32,-0.03 -1.67,-0.06 -0.88,-0.78 0.39,-0.36 1.58,-1.31 1.66,-1.67 -0.02,0.12 -0.16,-0.56 -0.1,-0.68 0.05,-0.08 0.54,-0.33 0.79,-0.59 2.71,-2.82 5.37,-5.81 8.11,-8.7 0.43,-0.45 1.01,-0.85 1.27,-1.27 0.07,-0.11 -0.09,-0.37 0,-0.58 0.09,-0.21 0.31,-0.33 0.39,-0.49 0.16,-0.31 0.12,-0.56 0.49,-0.69 0.29,-0.1 0.56,0.07 0.68,0.39 0.11,0.29 -0.32,0.37 -0.29,0.79z"/>
   </g>
   <polygon class="fil0" points="-0.01,159.76 253.99,159.76 228.86,133.73 22.73,133.73 "/>
  </g>
 </g>
</svg>
